<mxfile host="app.diagrams.net" agent="Mozilla/5.0 (Windows NT 10.0; Win64; x64) AppleWebKit/537.36 (KHTML, like Gecko) Chrome/122.0.0.0 Safari/537.36" version="27.1.5">
  <diagram id="cdm_luna_bakery_mongodb_extended_en" name="Luna Bakery CDM (MongoDB Extended)">
    <mxGraphModel dx="3293" dy="895" grid="1" gridSize="10" guides="1" tooltips="1" connect="1" arrows="1" fold="1" page="1" pageScale="1" pageWidth="827" pageHeight="1169" math="0" shadow="0">
      <root>
        <mxCell id="0" />
        <mxCell id="1" parent="0" />
        <mxCell id="users_Collection" value="&lt;b&gt;users&lt;/b&gt; (Collection)&lt;hr&gt;&lt;div style=&quot;text-align: left&quot;&gt;&lt;font color=&quot;#FF8000&quot;&gt;_id&lt;/font&gt;: &lt;font color=&quot;#FF8000&quot;&gt;ObjectID&lt;/font&gt;&lt;br&gt;username: String &lt;i&gt;(unique, required)&lt;/i&gt;&lt;br&gt;passwordHash: String &lt;i&gt;(required)&lt;/i&gt;&lt;br&gt;email: String &lt;i&gt;(unique, optional)&lt;/i&gt;&lt;br&gt;phoneNumber: String &lt;i&gt;(optional)&lt;/i&gt;&lt;br&gt;&lt;font color=&quot;#FF00FF&quot;&gt;address&lt;/font&gt;: &lt;font color=&quot;#FF00FF&quot;&gt;{street, city, zipCode, country, latitude, longitude}&lt;/font&gt;&lt;br&gt;&lt;font color=&quot;#FF8000&quot;&gt;accountCreationDate&lt;/font&gt;: &lt;font color=&quot;#FF8000&quot;&gt;Date&lt;/font&gt;&lt;br&gt;&lt;font color=&quot;#FF8000&quot;&gt;lastLoginDate&lt;/font&gt;: &lt;font color=&quot;#FF8000&quot;&gt;Date&lt;/font&gt;&lt;br&gt;&lt;font color=&quot;#800080&quot;&gt;roles&lt;/font&gt;: &lt;font color=&quot;#800080&quot;&gt;[String] &lt;i&gt;(&quot;customer&quot;, &quot;admin&quot;, &quot;manager&quot;, &quot;baker&quot;, &quot;delivery_staff&quot;)&lt;/i&gt;&lt;/font&gt;&lt;br&gt;&lt;font color=&quot;#FF00FF&quot;&gt;customerProfile&lt;/font&gt;: &lt;font color=&quot;#FF00FF&gt;{fullName, loyaltyPoints, birthday, preferredContactMethod}&lt;/font&gt;&lt;br&gt;isActive: Boolean&lt;br&gt;profilePictureUrl: String&lt;/div&gt;" style="rounded=1;whiteSpace=wrap;html=1;fillColor=#FFF2CC;strokeColor=#D6B656;fontFamily=Helvetica;fontSize=12;align=center;verticalAlign=top;" parent="1" vertex="1">
          <mxGeometry x="160" y="480" width="300" height="320" as="geometry" />
        </mxCell>
        <mxCell id="products_Collection" value="&lt;b&gt;products&lt;/b&gt; (Collection)&lt;hr&gt;&lt;div style=&quot;text-align: left&quot;&gt;&lt;font color=&quot;#FF8000&quot;&gt;_id&lt;/font&gt;: &lt;font color=&quot;#FF8000&quot;&gt;ObjectID&lt;/font&gt;&lt;br&gt;productName: String &lt;i&gt;(unique, required)&lt;/i&gt;&lt;br&gt;description: String&lt;br&gt;price: Number (double) &lt;i&gt;(required)&lt;/i&gt;&lt;br&gt;stockQuantity: Number (int) &lt;i&gt;(required)&lt;/i&gt;&lt;br&gt;&lt;font color=&quot;#800080&quot;&gt;imageUrls&lt;/font&gt;: &lt;font color=&quot;#800080&quot;&gt;[String]&lt;/font&gt;&lt;br&gt;status: String &lt;i&gt;(&quot;available&quot;, &quot;out_of_stock&quot; etc.)&lt;/i&gt;&lt;br&gt;&lt;font color=&quot;#008000&quot;&gt;categoryId&lt;/font&gt;: &lt;font color=&quot;#008000&quot;&gt;ObjectID &lt;i&gt;(ref: categories)&lt;/i&gt;&lt;/font&gt;&lt;br&gt;&lt;font color=&quot;#800080&quot;&gt;tags&lt;/font&gt;: &lt;font color=&quot;#800080&quot;&gt;[String]&lt;/font&gt;&lt;br&gt;&lt;font color=&quot;#FF8000&quot;&gt;creationDate&lt;/font&gt;: &lt;font color=&quot;#FF8000&quot;&gt;Date&lt;/font&gt;&lt;br&gt;&lt;font color=&quot;#FF8000&quot;&gt;lastUpdatedDate&lt;/font&gt;: &lt;font color=&quot;#FF8000&quot;&gt;Date&lt;/font&gt;&lt;br&gt;averageRating: Number (double) &lt;i&gt;(denormalized)&lt;/i&gt;&lt;br&gt;reviewCount: Number (int) &lt;i&gt;(denormalized)&lt;/i&gt;&lt;/div&gt;" style="rounded=1;whiteSpace=wrap;html=1;fillColor=#D5E8D4;strokeColor=#82B366;fontFamily=Helvetica;fontSize=12;align=center;verticalAlign=top;" parent="1" vertex="1">
          <mxGeometry x="-390" y="20" width="300" height="300" as="geometry" />
        </mxCell>
        <mxCell id="categories_Collection" value="&lt;b&gt;categories&lt;/b&gt; (Collection)&lt;hr&gt;&lt;div style=&quot;text-align: left&quot;&gt;&lt;font color=&quot;#FF8000&quot;&gt;_id&lt;/font&gt;: &lt;font color=&quot;#FF8000&quot;&gt;ObjectID&lt;/font&gt;&lt;br&gt;categoryName: String &lt;i&gt;(unique, required)&lt;/i&gt;&lt;br&gt;description: String&lt;br&gt;productCount: Number (int) &lt;i&gt;(denormalized)&lt;/i&gt;&lt;br&gt;&lt;font color=&quot;#008000&quot;&gt;parentCategoryId&lt;/font&gt;: &lt;font color=&quot;#008000&quot;&gt;ObjectID &lt;i&gt;(self-ref for sub-categories)&lt;/i&gt;&lt;/font&gt;&lt;/div&gt;" style="rounded=1;whiteSpace=wrap;html=1;fillColor=#D5E8D4;strokeColor=#82B366;fontFamily=Helvetica;fontSize=12;align=center;verticalAlign=top;" parent="1" vertex="1">
          <mxGeometry x="-970" y="10" width="250" height="150" as="geometry" />
        </mxCell>
        <mxCell id="orders_Collection" value="&lt;b&gt;orders&lt;/b&gt; (Collection)&lt;hr&gt;&lt;div style=&quot;text-align: left&quot;&gt;&lt;font color=&quot;#FF8000&quot;&gt;_id&lt;/font&gt;: &lt;font color=&quot;#FF8000&quot;&gt;ObjectID&lt;/font&gt;&lt;br&gt;&lt;font color=&quot;#008000&quot;&gt;customerId&lt;/font&gt;: &lt;font color=&quot;#008000&quot;&gt;ObjectID &lt;i&gt;(ref: users)&lt;/i&gt;&lt;/font&gt;&lt;br&gt;&lt;font color=&quot;#FF8000&quot;&gt;orderDate&lt;/font&gt;: &lt;font color=&quot;#FF8000&quot;&gt;Date &lt;i&gt;(required)&lt;/i&gt;&lt;/font&gt;&lt;br&gt;totalAmount: Number (double) &lt;i&gt;(required)&lt;/i&gt;&lt;br&gt;orderStatus: String &lt;i&gt;(&quot;pending&quot;, &quot;processing&quot;, &quot;baking&quot;, &quot;out_for_delivery&quot;, &quot;delivered&quot;, &quot;cancelled&quot;)&lt;/i&gt;&lt;br&gt;&lt;font color=&quot;#FF00FF&quot;&gt;deliveryAddress&lt;/font&gt;: &lt;font color=&quot;#FF00FF&quot;&gt;{street, city, zipCode, country, receiverName, receiverPhone}&lt;/font&gt;&lt;br&gt;notes: String&lt;br&gt;&lt;font color=&quot;#800080&quot;&gt;orderDetails&lt;/font&gt;: &lt;font color=&quot;#800080&quot;&gt;[{productId, productName, quantity, unitPrice, subtotal, productImageUrl}]&lt;/font&gt;&lt;br&gt;&lt;font color=&quot;#008000&quot;&gt;promotionId&lt;/font&gt;: &lt;font color=&quot;#008000&quot;&gt;ObjectID &lt;i&gt;(ref: promotions, optional)&lt;/i&gt;&lt;/font&gt;&lt;br&gt;&lt;font color=&quot;#008000&quot;&gt;voucherCodeUsed&lt;/font&gt;: &lt;font color=&quot;#008000&quot;&gt;String &lt;i&gt;(ref: vouchers, optional)&lt;/i&gt;&lt;/font&gt;&lt;br&gt;&lt;font color=&quot;#008000&quot;&gt;paymentTransactionId&lt;/font&gt;: &lt;font color=&quot;#008000&quot;&gt;ObjectID &lt;i&gt;(ref: payment_transactions, required)&lt;/i&gt;&lt;/font&gt;&lt;br&gt;&lt;font color=&quot;#008000&quot;&gt;deliveryStaffId&lt;/font&gt;: &lt;font color=&quot;#008000&quot;&gt;ObjectID &lt;i&gt;(ref: users, optional)&lt;/i&gt;&lt;/font&gt;&lt;br&gt;&lt;font color=&quot;#FF8000&quot;&gt;expectedDeliveryDate&lt;/font&gt;: &lt;font color=&quot;#FF8000&quot;&gt;Date &lt;i&gt;(optional)&lt;/i&gt;&lt;/font&gt;&lt;br&gt;&lt;font color=&quot;#FF8000&quot;&gt;actualDeliveryDate&lt;/font&gt;: &lt;font color=&quot;#FF8000&quot;&gt;Date &lt;i&gt;(optional)&lt;/i&gt;&lt;/font&gt;&lt;/div&gt;" style="rounded=1;whiteSpace=wrap;html=1;fillColor=#DAE8FC;strokeColor=#6C8EBF;fontFamily=Helvetica;fontSize=12;align=center;verticalAlign=top;" parent="1" vertex="1">
          <mxGeometry x="-700" y="355" width="350" height="400" as="geometry" />
        </mxCell>
        <mxCell id="promotions_Collection" value="&lt;b&gt;promotions&lt;/b&gt; (Collection)&lt;hr&gt;&lt;div style=&quot;text-align: left&quot;&gt;&lt;font color=&quot;#FF8000&quot;&gt;_id&lt;/font&gt;: &lt;font color=&quot;#FF8000&quot;&gt;ObjectID&lt;/font&gt;&lt;br&gt;promoCode: String &lt;i&gt;(unique, optional)&lt;/i&gt;&lt;br&gt;promoName: String&lt;br&gt;description: String&lt;br&gt;discountValue: Number (double)&lt;br&gt;discountType: String &lt;i&gt;(&quot;percentage&quot;, &quot;fixed_amount&quot;, &quot;free_shipping&quot;)&lt;/i&gt;&lt;br&gt;&lt;font color=&quot;#FF8000&quot;&gt;startDate&lt;/font&gt;: &lt;font color=&quot;#FF8000&quot;&gt;Date &lt;i&gt;(required)&lt;/i&gt;&lt;/font&gt;&lt;br&gt;&lt;font color=&quot;#FF8000&quot;&gt;endDate&lt;/font&gt;: &lt;font color=&quot;#FF8000&quot;&gt;Date &lt;i&gt;(required)&lt;/i&gt;&lt;/font&gt;&lt;br&gt;conditions: String &lt;i&gt;(&quot;min_order_amount:50&quot;, &quot;new_customer&quot;)&lt;/i&gt;&lt;br&gt;&lt;font color=&quot;#800080&quot;&gt;applicableProducts&lt;/font&gt;: &lt;font color=&quot;#800080&quot;&gt;[ObjectID] &lt;i&gt;(ref: products, optional)&lt;/i&gt;&lt;/font&gt;&lt;br&gt;isActive: Boolean&lt;br&gt;usageLimit: Number (int) &lt;i&gt;(total usage)&lt;/i&gt;&lt;/div&gt;" style="rounded=1;whiteSpace=wrap;html=1;fillColor=#DAE8FC;strokeColor=#6C8EBF;fontFamily=Helvetica;fontSize=12;align=center;verticalAlign=top;" parent="1" vertex="1">
          <mxGeometry x="-670" y="850" width="300" height="270" as="geometry" />
        </mxCell>
        <mxCell id="ingredients_Collection" value="&lt;b&gt;ingredients&lt;/b&gt; (Collection)&lt;hr&gt;&lt;div style=&quot;text-align: left&quot;&gt;&lt;font color=&quot;#FF8000&quot;&gt;_id&lt;/font&gt;: &lt;font color=&quot;#FF8000&quot;&gt;ObjectID&lt;/font&gt;&lt;br&gt;ingredientName: String &lt;i&gt;(unique, required)&lt;/i&gt;&lt;br&gt;unitOfMeasure: String &lt;i&gt;(&quot;gram&quot;, &quot;ml&quot;, &quot;pcs&quot;, &quot;kg&quot;)&lt;/i&gt;&lt;br&gt;stockQuantity: Number (double)&lt;br&gt;minStockLevel: Number (double)&lt;br&gt;&lt;font color=&quot;#FF8000&quot;&gt;lastRestockDate&lt;/font&gt;: &lt;font color=&quot;#FF8000&quot;&gt;Date&lt;/font&gt;&lt;br&gt;&lt;font color=&quot;#FF8000&quot;&gt;expiryDate&lt;/font&gt;: &lt;font color=&quot;#FF8000&quot;&gt;Date &lt;i&gt;(optional)&lt;/i&gt;&lt;/font&gt;&lt;br&gt;supplierInfo: String&lt;br&gt;&lt;font color=&quot;#FF8000&quot;&gt;lastUpdatedDate&lt;/font&gt;: &lt;font color=&quot;#FF8000&quot;&gt;Date&lt;/font&gt;&lt;/div&gt;" style="rounded=1;whiteSpace=wrap;html=1;fillColor=#D5E8D4;strokeColor=#82B366;fontFamily=Helvetica;fontSize=12;align=center;verticalAlign=top;" parent="1" vertex="1">
          <mxGeometry x="960" y="150" width="280" height="220" as="geometry" />
        </mxCell>
        <mxCell id="recipes_Collection" value="&lt;b&gt;recipes&lt;/b&gt; (Collection)&lt;hr&gt;&lt;div style=&quot;text-align: left&quot;&gt;&lt;font color=&quot;#FF8000&quot;&gt;_id&lt;/font&gt;: &lt;font color=&quot;#FF8000&quot;&gt;ObjectID&lt;/font&gt;&lt;br&gt;recipeName: String &lt;i&gt;(unique, required)&lt;/i&gt;&lt;br&gt;description: String&lt;br&gt;preparationTimeMinutes: Number (int)&lt;br&gt;instructions: String&lt;br&gt;&lt;font color=&quot;#800080&quot;&gt;ingredientsRequired&lt;/font&gt;: &lt;font color=&quot;#800080&quot;&gt;[{ingredientId, quantity, unitOfMeasure}]&lt;/font&gt;&lt;br&gt;&lt;font color=&quot;#008000&quot;&gt;bakerId&lt;/font&gt;: &lt;font color=&quot;#008000&quot;&gt;ObjectID &lt;i&gt;(ref: users, optional)&lt;/i&gt;&lt;/font&gt;&lt;br&gt;servingSize: String&lt;/div&gt;" style="rounded=1;whiteSpace=wrap;html=1;fillColor=#D5E8D4;strokeColor=#82B366;fontFamily=Helvetica;fontSize=12;align=center;verticalAlign=top;" parent="1" vertex="1">
          <mxGeometry x="970" y="540" width="280" height="210" as="geometry" />
        </mxCell>
        <mxCell id="vouchers_Collection" value="&lt;b&gt;vouchers&lt;/b&gt; (Collection)&lt;hr&gt;&lt;div style=&quot;text-align: left&quot;&gt;&lt;font color=&quot;#FF8000&quot;&gt;_id&lt;/font&gt;: &lt;font color=&quot;#FF8000&quot;&gt;ObjectID&lt;/font&gt;&lt;br&gt;voucherCode: String &lt;i&gt;(unique, required)&lt;/i&gt;&lt;br&gt;&lt;font color=&quot;#008000&quot;&gt;promotionId&lt;/font&gt;: &lt;font color=&quot;#008000&quot;&gt;ObjectID &lt;i&gt;(ref: promotions, required)&lt;/i&gt;&lt;/font&gt;&lt;br&gt;&lt;font color=&quot;#008000&quot;&gt;userId&lt;/font&gt;: &lt;font color=&quot;#008000&quot;&gt;ObjectID &lt;i&gt;(ref: users, optional - if user-specific)&lt;/i&gt;&lt;/font&gt;&lt;br&gt;isUsed: Boolean &lt;i&gt;(default: false)&lt;/i&gt;&lt;br&gt;&lt;font color=&quot;#FF8000&quot;&gt;usedDate&lt;/font&gt;: &lt;font color=&quot;#FF8000&quot;&gt;Date &lt;i&gt;(optional)&lt;/i&gt;&lt;/font&gt;&lt;/div&gt;&lt;div style=&quot;text-align: left&quot;&gt;&lt;font color=&quot;#ff8000&quot;&gt;&lt;i&gt;expiryDate: Date&amp;nbsp;&lt;br&gt;&lt;/i&gt;&lt;/font&gt;&lt;font color=&quot;#008000&quot;&gt;orderId&lt;/font&gt;: &lt;font color=&quot;#008000&quot;&gt;ObjectID &lt;i&gt;(ref: orders, optional - if used)&lt;/i&gt;&lt;/font&gt;&lt;br&gt;isActive: Boolean&lt;/div&gt;" style="rounded=1;whiteSpace=wrap;html=1;fillColor=#F8CECC;strokeColor=#B85450;fontFamily=Helvetica;fontSize=12;align=center;verticalAlign=top;" parent="1" vertex="1">
          <mxGeometry y="870" width="280" height="200" as="geometry" />
        </mxCell>
        <mxCell id="payment_transactions_Collection" value="&lt;b&gt;payment_transactions&lt;/b&gt; (Collection)&lt;hr&gt;&lt;div style=&quot;text-align: left&quot;&gt;&lt;font color=&quot;#FF8000&quot;&gt;_id&lt;/font&gt;: &lt;font color=&quot;#FF8000&quot;&gt;ObjectID&lt;/font&gt;&lt;br&gt;&lt;font color=&quot;#008000&quot;&gt;orderId&lt;/font&gt;: &lt;font color=&quot;#008000&quot;&gt;ObjectID &lt;i&gt;(ref: orders, required)&lt;/i&gt;&lt;/font&gt;&lt;br&gt;transactionId: String &lt;i&gt;(from payment gateway, unique)&lt;/i&gt;&lt;br&gt;&lt;font color=&quot;#FF8000&quot;&gt;paymentDate&lt;/font&gt;: &lt;font color=&quot;#FF8000&quot;&gt;Date &lt;i&gt;(required)&lt;/i&gt;&lt;/font&gt;&lt;br&gt;amount: Number (double) &lt;i&gt;(required)&lt;/i&gt;&lt;br&gt;paymentMethod: String &lt;i&gt;(&quot;credit_card&quot;, &quot;cash&quot;, &quot;bank_transfer&quot;)&lt;/i&gt;&lt;br&gt;paymentStatus: String &lt;i&gt;(&quot;completed&quot;, &quot;pending&quot;, &quot;failed&quot;, &quot;refunded&quot;)&lt;/i&gt;&lt;br&gt;&lt;font color=&quot;#FF00FF&quot;&gt;gatewayResponse&lt;/font&gt;: &lt;font color=&quot;#FF00FF&quot;&gt;{...} &lt;i&gt;(raw response from gateway)&lt;/i&gt;&lt;/font&gt;&lt;br&gt;currency: String &lt;i&gt;(e.g., &quot;VND&quot;, &quot;USD&quot;)&lt;/i&gt;&lt;/div&gt;" style="rounded=1;whiteSpace=wrap;html=1;fillColor=#DAE8FC;strokeColor=#6C8EBF;fontFamily=Helvetica;fontSize=12;align=center;verticalAlign=top;" parent="1" vertex="1">
          <mxGeometry x="-1200" y="570" width="300" height="230" as="geometry" />
        </mxCell>
        <mxCell id="product_reviews_Collection" value="&lt;b&gt;product_reviews&lt;/b&gt; (Collection)&lt;hr&gt;&lt;div style=&quot;text-align: left&quot;&gt;&lt;font color=&quot;#FF8000&quot;&gt;_id&lt;/font&gt;: &lt;font color=&quot;#FF8000&quot;&gt;ObjectID&lt;/font&gt;&lt;br&gt;&lt;font color=&quot;#008000&quot;&gt;productId&lt;/font&gt;: &lt;font color=&quot;#008000&quot;&gt;ObjectID &lt;i&gt;(ref: products, required)&lt;/i&gt;&lt;/font&gt;&lt;br&gt;&lt;font color=&quot;#008000&quot;&gt;userId&lt;/font&gt;: &lt;font color=&quot;#008000&quot;&gt;ObjectID &lt;i&gt;(ref: users, required)&lt;/i&gt;&lt;/font&gt;&lt;br&gt;rating: Number (int) &lt;i&gt;(1-5)&lt;/i&gt;&lt;br&gt;comment: String&lt;br&gt;&lt;font color=&quot;#FF8000&quot;&gt;reviewDate&lt;/font&gt;: &lt;font color=&quot;#FF8000&quot;&gt;Date&lt;/font&gt;&lt;br&gt;isApproved: Boolean &lt;i&gt;(for moderation)&lt;/i&gt;&lt;br&gt;&lt;font color=&quot;#800080&quot;&gt;imageUrls&lt;/font&gt;: &lt;font color=&quot;#800080&quot;&gt;[String]&lt;/font&gt;&lt;/div&gt;" style="rounded=1;whiteSpace=wrap;html=1;fillColor=#D5E8D4;strokeColor=#82B366;fontFamily=Helvetica;fontSize=12;align=center;verticalAlign=top;" parent="1" vertex="1">
          <mxGeometry x="650" y="330" width="280" height="200" as="geometry" />
        </mxCell>
        <mxCell id="notifications_Collection" value="&lt;b&gt;notifications&lt;/b&gt; (Collection)&lt;hr&gt;&lt;div style=&quot;text-align: left&quot;&gt;&lt;font color=&quot;#FF8000&quot;&gt;_id&lt;/font&gt;: &lt;font color=&quot;#FF8000&quot;&gt;ObjectID&lt;/font&gt;&lt;br&gt;&lt;font color=&quot;#008000&quot;&gt;userId&lt;/font&gt;: &lt;font color=&quot;#008000&quot;&gt;ObjectID &lt;i&gt;(ref: users, optional for general notifs)&lt;/i&gt;&lt;/font&gt;&lt;br&gt;type: String &lt;i&gt;(&quot;order_update&quot;, &quot;promotion&quot;, &quot;system&quot; etc.)&lt;/i&gt;&lt;br&gt;message: String &lt;i&gt;(required)&lt;/i&gt;&lt;br&gt;isRead: Boolean &lt;i&gt;(default: false)&lt;/i&gt;&lt;br&gt;&lt;font color=&quot;#FF8000&quot;&gt;sentDate&lt;/font&gt;: &lt;font color=&quot;#FF8000&quot;&gt;Date&lt;/font&gt;&lt;br&gt;&lt;font color=&quot;#FF00FF&quot;&gt;relatedEntity&lt;/font&gt;: &lt;font color=&quot;#FF00FF&quot;&gt;{id: ObjectID, collection: String} &lt;i&gt;(optional)&lt;/i&gt;&lt;/font&gt;&lt;/div&gt;" style="rounded=1;whiteSpace=wrap;html=1;fillColor=#FFF2CC;strokeColor=#D6B656;fontFamily=Helvetica;fontSize=12;align=center;verticalAlign=top;" parent="1" vertex="1">
          <mxGeometry x="970" y="760" width="280" height="190" as="geometry" />
        </mxCell>
        <mxCell id="blog_posts_Collection" value="&lt;b&gt;blog_posts&lt;/b&gt; (Collection)&lt;hr&gt;&lt;div style=&quot;text-align: left&quot;&gt;&lt;font color=&quot;#FF8000&quot;&gt;_id&lt;/font&gt;: &lt;font color=&quot;#FF8000&quot;&gt;ObjectID&lt;/font&gt;&lt;br&gt;title: String &lt;i&gt;(unique, required)&lt;/i&gt;&lt;br&gt;content: String &lt;i&gt;(rich text)&lt;/i&gt;&lt;br&gt;&lt;font color=&quot;#008000&quot;&gt;authorId&lt;/font&gt;: &lt;font color=&quot;#008000&quot;&gt;ObjectID &lt;i&gt;(ref: users, for manager/admin)&lt;/i&gt;&lt;/font&gt;&lt;br&gt;&lt;font color=&quot;#FF8000&quot;&gt;publishDate&lt;/font&gt;: &lt;font color=&quot;#FF8000&quot;&gt;Date&lt;/font&gt;&lt;br&gt;status: String &lt;i&gt;(&quot;draft&quot;, &quot;published&quot;)&lt;/i&gt;&lt;br&gt;&lt;font color=&quot;#800080&quot;&gt;tags&lt;/font&gt;: &lt;font color=&quot;#800080&quot;&gt;[String]&lt;/font&gt;&lt;br&gt;slug: String &lt;i&gt;(for SEO)&lt;/i&gt;&lt;/div&gt;" style="rounded=1;whiteSpace=wrap;html=1;fillColor=#D5E8D4;strokeColor=#82B366;fontFamily=Helvetica;fontSize=12;align=center;verticalAlign=top;" parent="1" vertex="1">
          <mxGeometry x="960" y="960" width="280" height="190" as="geometry" />
        </mxCell>
        <mxCell id="feedback_Collection" value="&lt;b&gt;feedback&lt;/b&gt; (Collection)&lt;hr&gt;&lt;div style=&quot;text-align: left&quot;&gt;&lt;font color=&quot;#FF8000&quot;&gt;_id&lt;/font&gt;: &lt;font color=&quot;#FF8000&quot;&gt;ObjectID&lt;/font&gt;&lt;br&gt;&lt;font color=&quot;#008000&quot;&gt;userId&lt;/font&gt;: &lt;font color=&quot;#008000&quot;&gt;ObjectID &lt;i&gt;(ref: users, optional)&lt;/i&gt;&lt;/font&gt;&lt;br&gt;name: String &lt;i&gt;(if not logged in)&lt;/i&gt;&lt;br&gt;email: String &lt;i&gt;(if not logged in)&lt;/i&gt;&lt;br&gt;subject: String&lt;br&gt;message: String &lt;i&gt;(required)&lt;/i&gt;&lt;br&gt;&lt;font color=&quot;#FF8000&quot;&gt;submissionDate&lt;/font&gt;: &lt;font color=&quot;#FF8000&quot;&gt;Date&lt;/font&gt;&lt;br&gt;status: String &lt;i&gt;(&quot;new&quot;, &quot;in_progress&quot;, &quot;resolved&quot;)&lt;/i&gt;&lt;/div&gt;" style="rounded=1;whiteSpace=wrap;html=1;fillColor=#FFF2CC;strokeColor=#D6B656;fontFamily=Helvetica;fontSize=12;align=center;verticalAlign=top;" parent="1" vertex="1">
          <mxGeometry x="330" y="875" width="280" height="190" as="geometry" />
        </mxCell>
        <mxCell id="products_categories_Ref" value="&lt;b&gt;has category&lt;/b&gt;" style="endArrow=open;html=1;fontFamily=Helvetica;fontSize=12;verticalAlign=bottom;labelBackgroundColor=none;strokeColor=#008000;" parent="1" source="products_Collection" target="categories_Collection" edge="1">
          <mxGeometry width="160" relative="1" as="geometry">
            <mxPoint x="750" y="180" as="sourcePoint" />
            <mxPoint x="800" y="180" as="targetPoint" />
          </mxGeometry>
        </mxCell>
        <mxCell id="orders_users_Ref" value="&lt;b&gt;placed by&lt;/b&gt;" style="endArrow=open;html=1;fontFamily=Helvetica;fontSize=12;verticalAlign=bottom;labelBackgroundColor=none;strokeColor=#6C8EBF;entryX=0.003;entryY=0.773;entryDx=0;entryDy=0;entryPerimeter=0;" parent="1" source="orders_Collection" target="users_Collection" edge="1">
          <mxGeometry width="160" relative="1" as="geometry">
            <mxPoint x="250" y="400" as="sourcePoint" />
            <mxPoint x="250" y="370" as="targetPoint" />
            <Array as="points">
              <mxPoint x="30" y="670" />
            </Array>
          </mxGeometry>
        </mxCell>
        <mxCell id="orders_promotions_Ref" value="&lt;b&gt;applies promotion&lt;/b&gt;" style="endArrow=open;html=1;fontFamily=Helvetica;fontSize=12;verticalAlign=bottom;labelBackgroundColor=none;strokeColor=#6C8EBF;" parent="1" source="orders_Collection" target="promotions_Collection" edge="1">
          <mxGeometry width="160" relative="1" as="geometry">
            <mxPoint x="450" y="520" as="sourcePoint" />
            <mxPoint x="450" y="520" as="targetPoint" />
          </mxGeometry>
        </mxCell>
        <mxCell id="orders_vouchers_Ref" value="&lt;b&gt;uses voucher&lt;/b&gt;" style="endArrow=open;html=1;fontFamily=Helvetica;fontSize=12;verticalAlign=bottom;labelBackgroundColor=none;strokeColor=#B85450;" parent="1" source="orders_Collection" target="vouchers_Collection" edge="1">
          <mxGeometry width="160" relative="1" as="geometry">
            <mxPoint x="450" y="750" as="sourcePoint" />
            <mxPoint x="450" y="750" as="targetPoint" />
          </mxGeometry>
        </mxCell>
        <mxCell id="orders_payment_transactions_Ref" value="&lt;b&gt;has payment&lt;/b&gt;" style="endArrow=open;html=1;fontFamily=Helvetica;fontSize=12;verticalAlign=bottom;labelBackgroundColor=none;strokeColor=#6C8EBF;" parent="1" source="orders_Collection" target="payment_transactions_Collection" edge="1">
          <mxGeometry width="160" relative="1" as="geometry">
            <mxPoint x="250" y="800" as="sourcePoint" />
            <mxPoint x="250" y="830" as="targetPoint" />
          </mxGeometry>
        </mxCell>
        <mxCell id="orders_deliveryStaff_Ref" value="&lt;b&gt;assigned to delivery staff&lt;/b&gt;" style="endArrow=open;html=1;fontFamily=Helvetica;fontSize=12;verticalAlign=bottom;labelBackgroundColor=none;strokeColor=#6C8EBF;" parent="1" source="orders_Collection" target="users_Collection" edge="1">
          <mxGeometry width="160" relative="1" as="geometry">
            <mxPoint x="400" y="650" as="sourcePoint" />
            <mxPoint x="380" y="270" as="targetPoint" />
            <Array as="points">
              <mxPoint x="70" y="610" />
            </Array>
          </mxGeometry>
        </mxCell>
        <mxCell id="recipes_ingredients_Ref" value="&lt;b&gt;requires ingredients&lt;/b&gt;" style="endArrow=open;html=1;fontFamily=Helvetica;fontSize=12;verticalAlign=bottom;labelBackgroundColor=none;strokeColor=#82B366;" parent="1" source="recipes_Collection" target="ingredients_Collection" edge="1">
          <mxGeometry width="160" relative="1" as="geometry">
            <mxPoint x="1090" y="540" as="sourcePoint" />
            <mxPoint x="1090" y="510" as="targetPoint" />
          </mxGeometry>
        </mxCell>
        <mxCell id="recipes_baker_Ref" value="&lt;b&gt;created by baker&lt;/b&gt;" style="endArrow=open;html=1;fontFamily=Helvetica;fontSize=12;verticalAlign=bottom;labelBackgroundColor=none;strokeColor=#82B366;" parent="1" source="recipes_Collection" target="users_Collection" edge="1">
          <mxGeometry width="160" relative="1" as="geometry">
            <mxPoint x="800" y="520" as="sourcePoint" />
            <mxPoint x="400" y="270" as="targetPoint" />
          </mxGeometry>
        </mxCell>
        <mxCell id="vouchers_promotions_Ref" value="&lt;b&gt;based on promotion&lt;/b&gt;" style="endArrow=open;html=1;fontFamily=Helvetica;fontSize=12;verticalAlign=bottom;labelBackgroundColor=none;strokeColor=#B85450;" parent="1" source="vouchers_Collection" target="promotions_Collection" edge="1">
          <mxGeometry width="160" relative="1" as="geometry">
            <mxPoint x="590" y="700" as="sourcePoint" />
            <mxPoint x="590" y="650" as="targetPoint" />
          </mxGeometry>
        </mxCell>
        <mxCell id="vouchers_users_Ref" value="&lt;b&gt;issued to user&lt;/b&gt;" style="endArrow=open;html=1;fontFamily=Helvetica;fontSize=12;verticalAlign=bottom;labelBackgroundColor=none;strokeColor=#B85450;" parent="1" source="vouchers_Collection" target="users_Collection" edge="1">
          <mxGeometry width="160" relative="1" as="geometry">
            <mxPoint x="450" y="700" as="sourcePoint" />
            <mxPoint x="400" y="300" as="targetPoint" />
          </mxGeometry>
        </mxCell>
        <mxCell id="product_reviews_products_Ref" value="&lt;b&gt;reviews product&lt;/b&gt;" style="endArrow=open;html=1;fontFamily=Helvetica;fontSize=12;verticalAlign=bottom;labelBackgroundColor=none;strokeColor=#82B366;entryX=1.008;entryY=0.343;entryDx=0;entryDy=0;entryPerimeter=0;" parent="1" source="shopping_carts_Collection" target="products_Collection" edge="1">
          <mxGeometry width="160" relative="1" as="geometry">
            <mxPoint x="800" y="720" as="sourcePoint" />
            <mxPoint x="750" y="200" as="targetPoint" />
          </mxGeometry>
        </mxCell>
        <mxCell id="product_reviews_users_Ref" value="&lt;b&gt;written by user&lt;/b&gt;" style="endArrow=open;html=1;fontFamily=Helvetica;fontSize=12;verticalAlign=bottom;labelBackgroundColor=none;strokeColor=#82B366;" parent="1" source="product_reviews_Collection" target="users_Collection" edge="1">
          <mxGeometry width="160" relative="1" as="geometry">
            <mxPoint x="800" y="720" as="sourcePoint" />
            <mxPoint x="400" y="300" as="targetPoint" />
          </mxGeometry>
        </mxCell>
        <mxCell id="shopping_carts_users_Ref" value="&lt;b&gt;belongs to user&lt;/b&gt;" style="endArrow=open;html=1;fontFamily=Helvetica;fontSize=12;verticalAlign=bottom;labelBackgroundColor=none;strokeColor=#B85450;" parent="1" source="shopping_carts_Collection" target="users_Collection" edge="1">
          <mxGeometry width="160" relative="1" as="geometry">
            <mxPoint x="800" y="940" as="sourcePoint" />
            <mxPoint x="400" y="300" as="targetPoint" />
          </mxGeometry>
        </mxCell>
        <mxCell id="shopping_carts_products_Ref" value="&lt;b&gt;contains products&lt;/b&gt;" style="endArrow=open;html=1;fontFamily=Helvetica;fontSize=12;verticalAlign=bottom;labelBackgroundColor=none;strokeColor=#B85450;entryX=0.995;entryY=0.14;entryDx=0;entryDy=0;entryPerimeter=0;" parent="1" source="shopping_carts_Collection" target="products_Collection" edge="1">
          <mxGeometry width="160" relative="1" as="geometry">
            <mxPoint x="1100" y="1030" as="sourcePoint" />
            <mxPoint x="750" y="200" as="targetPoint" />
          </mxGeometry>
        </mxCell>
        <mxCell id="notifications_users_Ref" value="&lt;b&gt;for user&lt;/b&gt;" style="endArrow=open;html=1;fontFamily=Helvetica;fontSize=12;verticalAlign=bottom;labelBackgroundColor=none;strokeColor=#D6B656;" parent="1" source="notifications_Collection" target="users_Collection" edge="1">
          <mxGeometry width="160" relative="1" as="geometry">
            <mxPoint x="1120" y="380" as="sourcePoint" />
            <mxPoint x="400" y="300" as="targetPoint" />
          </mxGeometry>
        </mxCell>
        <mxCell id="blog_posts_users_Ref" value="&lt;b&gt;authored by&lt;/b&gt;" style="endArrow=open;html=1;fontFamily=Helvetica;fontSize=12;verticalAlign=bottom;labelBackgroundColor=none;strokeColor=#82B366;" parent="1" source="blog_posts_Collection" target="users_Collection" edge="1">
          <mxGeometry width="160" relative="1" as="geometry">
            <mxPoint x="1120" y="610" as="sourcePoint" />
            <mxPoint x="400" y="300" as="targetPoint" />
          </mxGeometry>
        </mxCell>
        <mxCell id="feedback_users_Ref" value="&lt;b&gt;submitted by&lt;/b&gt;" style="endArrow=open;html=1;fontFamily=Helvetica;fontSize=12;verticalAlign=bottom;labelBackgroundColor=none;strokeColor=#D6B656;" parent="1" source="feedback_Collection" target="users_Collection" edge="1">
          <mxGeometry width="160" relative="1" as="geometry">
            <mxPoint x="1120" y="830" as="sourcePoint" />
            <mxPoint x="400" y="300" as="targetPoint" />
          </mxGeometry>
        </mxCell>
        <mxCell id="JL7ehkC2WNCTCar6974p-2" value="&lt;b&gt;favorites&lt;/b&gt;&amp;nbsp;(Collection)&lt;hr&gt;&lt;div style=&quot;text-align: left&quot;&gt;&lt;font color=&quot;#FF8000&quot;&gt;_id&lt;/font&gt;: &lt;font color=&quot;#FF8000&quot;&gt;ObjectID&lt;/font&gt;&lt;br&gt;&lt;font color=&quot;#008000&quot;&gt;userId: ObjectID (ref: users, unique, required)&lt;/font&gt;&lt;/div&gt;&lt;div style=&quot;text-align: left&quot;&gt;&lt;div&gt;products: [&lt;span style=&quot;background-color: transparent; color: light-dark(rgb(0, 0, 0), rgb(255, 255, 255));&quot;&gt;{&lt;/span&gt;&lt;span style=&quot;background-color: transparent; color: light-dark(rgb(0, 0, 0), rgb(255, 255, 255));&quot;&gt;productId: ObjectID, // ref: products&amp;nbsp;&amp;nbsp;&lt;/span&gt;&lt;/div&gt;&lt;div&gt;addedDate: Date,&lt;span style=&quot;background-color: transparent; color: light-dark(rgb(0, 0, 0), rgb(255, 255, 255));&quot;&gt;}&amp;nbsp;&lt;/span&gt;&lt;span style=&quot;background-color: transparent; color: light-dark(rgb(0, 0, 0), rgb(255, 255, 255));&quot;&gt;]&amp;nbsp;&amp;nbsp;&lt;/span&gt;&lt;/div&gt;&lt;font color=&quot;#ff8000&quot;&gt;createdAt: Date&amp;nbsp;&amp;nbsp;&lt;/font&gt;&lt;br&gt;&lt;font color=&quot;#ff8000&quot;&gt;lastUpdatedAt: Date&amp;nbsp;&lt;/font&gt;&lt;/div&gt;" style="rounded=1;whiteSpace=wrap;html=1;fillColor=#DAE8FC;strokeColor=#6C8EBF;fontFamily=Helvetica;fontSize=12;align=center;verticalAlign=top;" parent="1" vertex="1">
          <mxGeometry x="50" y="200" width="300" height="150" as="geometry" />
        </mxCell>
        <mxCell id="JL7ehkC2WNCTCar6974p-3" value="" style="endArrow=open;html=1;fontFamily=Helvetica;fontSize=12;verticalAlign=bottom;labelBackgroundColor=none;strokeColor=#82B366;" parent="1" source="product_reviews_Collection" target="shopping_carts_Collection" edge="1">
          <mxGeometry width="160" relative="1" as="geometry">
            <mxPoint x="470" y="120" as="sourcePoint" />
            <mxPoint x="-90" y="159" as="targetPoint" />
          </mxGeometry>
        </mxCell>
        <mxCell id="shopping_carts_Collection" value="&lt;b&gt;shopping_carts&lt;/b&gt; (Collection)&lt;hr&gt;&lt;div style=&quot;text-align: left&quot;&gt;&lt;font color=&quot;#FF8000&quot;&gt;_id&lt;/font&gt;: &lt;font color=&quot;#FF8000&quot;&gt;ObjectID&lt;/font&gt;&lt;br&gt;&lt;font color=&quot;#008000&quot;&gt;userId&lt;/font&gt;: &lt;font color=&quot;#008000&quot;&gt;ObjectID &lt;i&gt;(ref: users, unique, optional for guests)&lt;/i&gt;&lt;/font&gt;&lt;br&gt;&lt;font color=&quot;#800080&quot;&gt;items&lt;/font&gt;: &lt;font color=&quot;#800080&quot;&gt;[{productId, quantity, unitPrice, addedDate}]&lt;/font&gt;&lt;br&gt;&lt;font color=&quot;#FF8000&quot;&gt;lastUpdatedDate&lt;/font&gt;: &lt;font color=&quot;#FF8000&quot;&gt;Date&lt;/font&gt;&lt;br&gt;isGuestCart: Boolean&lt;br&gt;&lt;font color=&quot;#008000&quot;&gt;promotionCode&lt;/font&gt;: &lt;font color=&quot;#008000&quot;&gt;String &lt;i&gt;(ref: promotions/vouchers)&lt;/i&gt;&lt;/font&gt;&lt;/div&gt;" style="rounded=1;whiteSpace=wrap;html=1;fillColor=#F8CECC;strokeColor=#B85450;fontFamily=Helvetica;fontSize=12;align=center;verticalAlign=top;" parent="1" vertex="1">
          <mxGeometry x="500" y="40" width="300" height="190" as="geometry" />
        </mxCell>
        <mxCell id="JL7ehkC2WNCTCar6974p-8" style="rounded=0;orthogonalLoop=1;jettySize=auto;html=1;exitX=0;exitY=0.5;exitDx=0;exitDy=0;entryX=1.007;entryY=0.647;entryDx=0;entryDy=0;entryPerimeter=0;fillColor=#dae8fc;strokeColor=#6c8ebf;" parent="1" source="JL7ehkC2WNCTCar6974p-2" target="products_Collection" edge="1">
          <mxGeometry relative="1" as="geometry" />
        </mxCell>
        <mxCell id="JL7ehkC2WNCTCar6974p-9" value="" style="rounded=0;orthogonalLoop=1;jettySize=auto;html=1;exitX=0.5;exitY=1;exitDx=0;exitDy=0;entryX=0.45;entryY=0.004;entryDx=0;entryDy=0;entryPerimeter=0;fillColor=#dae8fc;strokeColor=#6c8ebf;" parent="1" source="JL7ehkC2WNCTCar6974p-2" target="users_Collection" edge="1">
          <mxGeometry relative="1" as="geometry" />
        </mxCell>
        <mxCell id="JL7ehkC2WNCTCar6974p-11" value="&lt;b style=&quot;forced-color-adjust: none; color: rgb(0, 0, 0); font-family: Helvetica; font-size: 12px; font-style: normal; font-variant-ligatures: normal; font-variant-caps: normal; letter-spacing: normal; orphans: 2; text-align: center; text-indent: 0px; text-transform: none; widows: 2; word-spacing: 0px; -webkit-text-stroke-width: 0px; white-space: nowrap; background-color: rgb(236, 236, 236); text-decoration-thickness: initial; text-decoration-style: initial; text-decoration-color: initial;&quot;&gt;belongs to user&lt;/b&gt;" style="text;whiteSpace=wrap;html=1;" parent="1" vertex="1">
          <mxGeometry x="190" y="420" width="120" height="40" as="geometry" />
        </mxCell>
        <mxCell id="JL7ehkC2WNCTCar6974p-13" value="&lt;b style=&quot;forced-color-adjust: none; color: rgb(0, 0, 0); font-family: Helvetica; font-size: 12px; font-style: normal; font-variant-ligatures: normal; font-variant-caps: normal; letter-spacing: normal; orphans: 2; text-align: center; text-indent: 0px; text-transform: none; widows: 2; word-spacing: 0px; -webkit-text-stroke-width: 0px; white-space: nowrap; background-color: rgb(236, 236, 236); text-decoration-thickness: initial; text-decoration-style: initial; text-decoration-color: initial;&quot;&gt;contains products&lt;/b&gt;" style="text;whiteSpace=wrap;html=1;" parent="1" vertex="1">
          <mxGeometry x="-70" y="230" width="140" height="40" as="geometry" />
        </mxCell>
      </root>
    </mxGraphModel>
  </diagram>
</mxfile>
